<svg xmlns="http://www.w3.org/2000/svg" viewBox="0 0 192.18 450.28"><defs><style>.cls-1{fill:#323438;}.cls-2{fill:#343228;}.cls-3{fill:#413b30;}.cls-4{fill:#473f30;}.cls-5{fill:#45402b;}.cls-6{fill:#575238;}.cls-7{fill:#4f4931;}.cls-8{fill:#5d573f;}.cls-9{fill:#5c563e;}.cls-10{fill:#615c44;}.cls-11{fill:#635e46;}.cls-12{fill:#7a7656;}.cls-13{fill:#959174;}.cls-14{fill:#989477;}.cls-15{fill:#959073;}.cls-16{fill:#7f7755;}.cls-17{fill:#7f7e67;}.cls-18{fill:#5c5d68;}.cls-19{fill:#343225;}.cls-20{fill:#382e2d;}.cls-21{fill:#3f3630;}.cls-22{fill:#473e36;}.cls-23{fill:#4b4232;}.cls-24{fill:#59503b;}.cls-25{fill:#594f3f;}.cls-26{fill:#6c6252;}.cls-27{fill:#675d4d;}.cls-28{fill:#685d49;}.cls-29{fill:#6a5f4b;}.cls-30{fill:#80785b;}.cls-31{fill:#98917c;}.cls-32{fill:#99927d;}.cls-33{fill:#80785e;}.cls-34{fill:#827a5f;}.cls-35{fill:#5a5c51;}.cls-36{fill:#4a473f;}.cls-37{fill:#4e4b36;}.cls-38{fill:#57543b;}.cls-39{fill:#6a684c;}.cls-40{fill:#71654c;}.cls-41{fill:#83785a;}.cls-42{fill:#847a55;}.cls-43{fill:#a59b76;}.cls-44{fill:#a19772;}.cls-45{fill:#9b9a72;}.cls-46{fill:#9d9c73;}.cls-47{fill:#c5bb98;}.cls-48{fill:#ebebc2;}.cls-49{fill:#e7e7be;}.cls-50{fill:#ccc1a1;}.cls-51{fill:#c2b898;}.cls-52{fill:#a3a39e;}.cls-53{fill:#fff;}.cls-54{fill:#3d3b37;}.cls-55{fill:#534a31;}.cls-56{fill:#332d26;}.cls-57{fill:#716c47;}.cls-58{fill:#71654b;}.cls-59{fill:#9d986a;}.cls-60{fill:#a09d78;}.cls-61{fill:#4e462f;}.cls-62{fill:#837e55;}.cls-63{fill:#a19b71;}.cls-64{fill:#a19c71;}.cls-65{fill:#f3efc2;}.cls-66{fill:#777055;}.cls-67{fill:#928e6f;}.cls-68{fill:#bdbc8b;}.cls-69{fill:#e7e5b8;}.cls-70{fill:#eeeac7;}.cls-71{fill:#7e795d;}.cls-72{fill:#7d7a56;}.cls-73{fill:#57535d;}.cls-74{fill:#52482f;}.cls-75{fill:#6c6741;}.cls-76{fill:#6c6047;}.cls-77{fill:#999466;}.cls-78{fill:#9c976c;}.cls-79{fill:#807b5f;}.cls-80{fill:#96936f;}.cls-81{fill:#5e5a64;}.cls-82{fill:#3e3c3b;}.cls-83{fill:#514731;}.cls-84{fill:#33301a;}.cls-85{fill:#6c6547;}.cls-86{fill:#676345;}.cls-87{fill:#9c976d;}.cls-88{fill:#7e7a5d;}.cls-89{fill:#9b9774;}.cls-90{fill:#5e5a61;}.cls-91{fill:#5d5960;}.cls-92{fill:#5a575e;}.cls-93{fill:#a0976e;}.cls-94{fill:#837f63;}.cls-95{fill:#c6bd94;}.cls-96{fill:#6e674e;}.cls-97{fill:#332e21;}.cls-98{fill:#524a34;}.cls-99{fill:#554c36;}.cls-100{fill:#4f4831;}.cls-101{fill:#332d29;}.cls-102{fill:#6c6745;}.cls-103{fill:#6a6147;}.cls-104{fill:#979566;}.cls-105{fill:#9e9e78;}.cls-106{fill:#524e36;}.cls-107{fill:#9c976e;}.cls-108{fill:#eeebc5;}.cls-109{fill:#9b9777;}.cls-110{fill:#575358;}.cls-111{fill:#423a3b;}.cls-112{fill:#67613f;}.cls-113{fill:#746b51;}.cls-114{fill:#9d9a6c;}.cls-115{fill:#b8b787;}.cls-116{fill:#e2e1b4;}.cls-117{fill:#eae7c2;}.cls-118{fill:#7c775c;}.cls-119{fill:#7f7b5b;}.cls-120{fill:#4f4b50;}.cls-121{fill:#696341;}.cls-122{fill:#877e63;}.cls-123{fill:#9c9a6c;}.cls-124{fill:#9b9269;}.cls-125{fill:#c8c796;}.cls-126{fill:#b9b88b;}.cls-127{fill:#e4e1bb;}.cls-128{fill:#7d785d;}.cls-129{fill:#a09c7d;}.cls-130{fill:#535054;}.cls-131{fill:#6d6842;}.cls-132{fill:#74674e;}.cls-133{fill:#9a9567;}.cls-134{fill:#544c35;}.cls-135{fill:#8a855c;}.cls-136{fill:#9b966b;}.cls-137{fill:#c1c090;}.cls-138{fill:#e1e0b3;}.cls-139{fill:#ece9c6;}.cls-140{fill:#50494e;}.cls-141{fill:#504831;}.cls-142{fill:#868158;}.cls-143{fill:#99946a;}.cls-144{fill:#4f494e;}</style></defs><title>Asset 5</title><g id="Layer_2" data-name="Layer 2"><g id="Layer_1-2" data-name="Layer 1"><rect class="cls-1" x="184.17" y="442.02" width="8.01" height="8.01"/><rect class="cls-2" x="176.16" y="442.02" width="8.01" height="8.01"/><rect class="cls-3" x="168.16" y="442.02" width="8.01" height="8.01"/><rect class="cls-4" x="160.15" y="442.02" width="8.01" height="8.01"/><rect class="cls-5" x="152.14" y="442.02" width="8.01" height="8.01"/><rect class="cls-6" x="144.13" y="442.02" width="8.01" height="8.01"/><rect class="cls-7" x="136.13" y="442.02" width="8.01" height="8.01"/><rect class="cls-8" x="128.12" y="442.02" width="8.01" height="8.01"/><rect class="cls-9" x="120.11" y="442.02" width="8.01" height="8.01"/><rect class="cls-10" x="112.1" y="442.02" width="8.01" height="8.01"/><rect class="cls-10" x="104.1" y="442.02" width="8.01" height="8.01"/><rect class="cls-11" x="96.09" y="442.02" width="8.01" height="8.01"/><rect class="cls-12" x="88.08" y="442.02" width="8.01" height="8.01"/><rect class="cls-12" x="80.07" y="442.02" width="8.01" height="8.01"/><rect class="cls-12" x="72.07" y="442.02" width="8.01" height="8.01"/><rect class="cls-12" x="64.06" y="442.02" width="8.01" height="8.01"/><rect class="cls-12" x="56.05" y="442.02" width="8.01" height="8.01"/><rect class="cls-12" x="48.04" y="442.02" width="8.01" height="8.01"/><rect class="cls-13" x="40.04" y="442.02" width="8.01" height="8.01"/><rect class="cls-14" x="32.03" y="442.02" width="8.01" height="8.01"/><rect class="cls-15" x="24.02" y="442.02" width="8.01" height="8.01"/><rect class="cls-16" x="16.01" y="442.02" width="8.01" height="8.01"/><rect class="cls-17" x="8.01" y="442.02" width="8.01" height="8.01"/><rect class="cls-18" y="442.02" width="8.01" height="8.01"/><rect class="cls-19" x="184.17" y="434.01" width="8.01" height="8.01"/><rect class="cls-20" x="176.16" y="434.01" width="8.01" height="8.01"/><rect class="cls-21" x="168.16" y="434.01" width="8.01" height="8.01"/><rect class="cls-22" x="160.15" y="434.01" width="8.01" height="8.01"/><rect class="cls-23" x="152.14" y="434.01" width="8.01" height="8.01"/><rect class="cls-24" x="144.13" y="434.01" width="8.01" height="8.01"/><rect class="cls-25" x="136.13" y="434.01" width="8.01" height="8.01"/><rect class="cls-26" x="128.12" y="434.01" width="8.01" height="8.01"/><rect class="cls-27" x="120.11" y="434.01" width="8.01" height="8.01"/><rect class="cls-28" x="112.1" y="434.01" width="8.01" height="8.01"/><rect class="cls-28" x="104.1" y="434.01" width="8.01" height="8.01"/><rect class="cls-29" x="96.09" y="434.01" width="8.01" height="8.01"/><rect class="cls-30" x="88.08" y="434.01" width="8.01" height="8.01"/><rect class="cls-30" x="80.07" y="434.01" width="8.01" height="8.01"/><rect class="cls-30" x="72.07" y="434.01" width="8.01" height="8.01"/><rect class="cls-30" x="64.06" y="434.01" width="8.01" height="8.01"/><rect class="cls-30" x="56.05" y="434.01" width="8.01" height="8.01"/><rect class="cls-30" x="48.04" y="434.01" width="8.01" height="8.01"/><rect class="cls-31" x="40.04" y="434.01" width="8.01" height="8.01"/><rect class="cls-32" x="32.03" y="434.01" width="8.01" height="8.01"/><rect class="cls-32" x="24.02" y="434.01" width="8.01" height="8.01"/><rect class="cls-33" x="16.01" y="434.01" width="8.01" height="8.01"/><rect class="cls-34" x="8.01" y="434.01" width="8.01" height="8.01"/><rect class="cls-35" y="434.01" width="8.01" height="8.01"/><rect class="cls-36" x="184.17" y="426" width="8.01" height="8.01"/><rect class="cls-37" x="176.16" y="426" width="8.01" height="8.01"/><rect class="cls-38" x="168.16" y="426" width="8.01" height="8.01"/><rect class="cls-39" x="160.15" y="426" width="8.01" height="8.01"/><rect class="cls-40" x="152.14" y="426" width="8.01" height="8.01"/><rect class="cls-41" x="144.13" y="426" width="8.01" height="8.01"/><rect class="cls-42" x="136.13" y="426" width="8.01" height="8.01"/><rect class="cls-43" x="128.12" y="426" width="8.01" height="8.01"/><rect class="cls-44" x="120.11" y="426" width="8.01" height="8.01"/><rect class="cls-45" x="112.1" y="426" width="8.01" height="8.01"/><rect class="cls-45" x="104.1" y="426" width="8.01" height="8.01"/><rect class="cls-46" x="96.09" y="426" width="8.01" height="8.01"/><rect class="cls-47" x="88.08" y="426" width="8.01" height="8.01"/><rect class="cls-47" x="80.07" y="426" width="8.01" height="8.01"/><rect class="cls-47" x="72.07" y="426" width="8.01" height="8.01"/><rect class="cls-47" x="64.06" y="426" width="8.01" height="8.01"/><rect class="cls-47" x="56.05" y="426" width="8.01" height="8.01"/><rect class="cls-47" x="48.04" y="426" width="8.01" height="8.01"/><rect class="cls-48" x="40.04" y="426" width="8.01" height="8.01"/><rect class="cls-49" x="32.03" y="426" width="8.01" height="8.01"/><rect class="cls-49" x="24.02" y="426" width="8.01" height="8.01"/><rect class="cls-50" x="16.01" y="426" width="8.01" height="8.01"/><rect class="cls-51" x="8.01" y="426" width="8.01" height="8.01"/><rect class="cls-52" y="426" width="8.01" height="8.01"/><rect class="cls-1" x="184.17" y="16.02" width="8.01" height="8.01"/><rect class="cls-2" x="176.16" y="16.02" width="8.01" height="8.01"/><rect class="cls-3" x="168.16" y="16.02" width="8.01" height="8.01"/><rect class="cls-4" x="160.15" y="16.02" width="8.01" height="8.01"/><rect class="cls-5" x="152.14" y="16.02" width="8.01" height="8.01"/><rect class="cls-6" x="144.13" y="16.02" width="8.01" height="8.01"/><rect class="cls-7" x="136.13" y="16.02" width="8.01" height="8.01"/><rect class="cls-8" x="128.12" y="16.02" width="8.01" height="8.01"/><rect class="cls-9" x="120.11" y="16.02" width="8.01" height="8.01"/><rect class="cls-10" x="112.1" y="16.02" width="8.01" height="8.01"/><rect class="cls-10" x="104.1" y="16.02" width="8.01" height="8.01"/><rect class="cls-11" x="96.09" y="16.02" width="8.01" height="8.01"/><rect class="cls-12" x="88.08" y="16.02" width="8.01" height="8.01"/><rect class="cls-12" x="80.07" y="16.02" width="8.01" height="8.01"/><rect class="cls-12" x="72.07" y="16.02" width="8.01" height="8.01"/><rect class="cls-12" x="64.06" y="16.02" width="8.01" height="8.01"/><rect class="cls-12" x="56.05" y="16.02" width="8.01" height="8.01"/><rect class="cls-12" x="48.04" y="16.02" width="8.01" height="8.01"/><rect class="cls-13" x="40.04" y="16.02" width="8.01" height="8.01"/><rect class="cls-14" x="32.03" y="16.02" width="8.01" height="8.01"/><rect class="cls-15" x="24.02" y="16.02" width="8.01" height="8.01"/><rect class="cls-16" x="16.01" y="16.02" width="8.01" height="8.01"/><rect class="cls-17" x="8.01" y="16.02" width="8.01" height="8.01"/><rect class="cls-18" y="16.02" width="8.01" height="8.01"/><rect class="cls-19" x="184.17" y="8.01" width="8.01" height="8.01"/><rect class="cls-20" x="176.16" y="8.01" width="8.01" height="8.01"/><rect class="cls-21" x="168.16" y="8.01" width="8.01" height="8.01"/><rect class="cls-22" x="160.15" y="8.01" width="8.01" height="8.01"/><rect class="cls-23" x="152.14" y="8.01" width="8.01" height="8.01"/><rect class="cls-24" x="144.13" y="8.01" width="8.01" height="8.01"/><rect class="cls-25" x="136.13" y="8.01" width="8.01" height="8.01"/><rect class="cls-26" x="128.12" y="8.01" width="8.01" height="8.01"/><rect class="cls-27" x="120.11" y="8.01" width="8.01" height="8.01"/><rect class="cls-28" x="112.1" y="8.01" width="8.01" height="8.01"/><rect class="cls-28" x="104.1" y="8.01" width="8.01" height="8.01"/><rect class="cls-29" x="96.09" y="8.01" width="8.01" height="8.01"/><rect class="cls-30" x="88.08" y="8.01" width="8.01" height="8.01"/><rect class="cls-30" x="80.07" y="8.01" width="8.01" height="8.01"/><rect class="cls-30" x="72.07" y="8.01" width="8.01" height="8.01"/><rect class="cls-30" x="64.06" y="8.01" width="8.01" height="8.01"/><rect class="cls-30" x="56.05" y="8.01" width="8.01" height="8.01"/><rect class="cls-30" x="48.04" y="8.01" width="8.01" height="8.01"/><rect class="cls-31" x="40.04" y="8.01" width="8.01" height="8.01"/><rect class="cls-32" x="32.03" y="8.01" width="8.01" height="8.01"/><rect class="cls-32" x="24.02" y="8.01" width="8.01" height="8.01"/><rect class="cls-33" x="16.01" y="8.01" width="8.01" height="8.01"/><rect class="cls-34" x="8.01" y="8.01" width="8.01" height="8.01"/><rect class="cls-35" y="8.01" width="8.01" height="8.01"/><rect class="cls-36" x="184.17" width="8.01" height="8.01"/><rect class="cls-37" x="176.16" width="8.01" height="8.01"/><rect class="cls-38" x="168.16" width="8.01" height="8.01"/><rect class="cls-39" x="160.15" width="8.01" height="8.01"/><rect class="cls-40" x="152.14" width="8.01" height="8.01"/><rect class="cls-41" x="144.13" width="8.01" height="8.01"/><rect class="cls-42" x="136.13" width="8.01" height="8.01"/><rect class="cls-43" x="128.12" width="8.01" height="8.01"/><rect class="cls-44" x="120.11" width="8.01" height="8.01"/><rect class="cls-45" x="112.1" width="8.01" height="8.01"/><rect class="cls-45" x="104.1" width="8.01" height="8.01"/><rect class="cls-46" x="96.09" width="8.01" height="8.01"/><rect class="cls-47" x="88.08" width="8.01" height="8.01"/><rect class="cls-47" x="80.07" width="8.01" height="8.01"/><rect class="cls-47" x="72.07" width="8.01" height="8.01"/><rect class="cls-47" x="64.06" width="8.01" height="8.01"/><rect class="cls-47" x="56.05" width="8.01" height="8.01"/><rect class="cls-47" x="48.04" width="8.01" height="8.01"/><rect class="cls-48" x="40.04" width="8.01" height="8.01"/><rect class="cls-49" x="32.03" width="8.01" height="8.01"/><rect class="cls-49" x="24.02" width="8.01" height="8.01"/><rect class="cls-50" x="16.01" width="8.01" height="8.01"/><rect class="cls-51" x="8.01" width="8.01" height="8.01"/><rect class="cls-52" width="8.01" height="8.01"/><rect class="cls-53" x="16.09" y="0.28" width="160" height="450"/><rect class="cls-54" x="168.16" y="441.8" width="8.01" height="8.01"/><rect class="cls-55" x="160.15" y="441.8" width="8.01" height="8.01"/><rect class="cls-56" x="152.14" y="441.8" width="8.01" height="8.01"/><rect class="cls-57" x="144.13" y="441.8" width="8.01" height="8.01"/><rect class="cls-58" x="136.13" y="441.8" width="8.01" height="8.01"/><rect class="cls-59" x="128.12" y="441.8" width="8.01" height="8.01"/><rect class="cls-60" x="120.11" y="441.8" width="8.01" height="8.01"/><rect class="cls-61" x="112.11" y="441.8" width="8" height="8.01"/><rect class="cls-62" x="104.1" y="441.8" width="8.01" height="8.01"/><rect class="cls-63" x="96.09" y="441.8" width="8.01" height="8.01"/><rect class="cls-64" x="88.08" y="441.8" width="8.01" height="8.01"/><rect class="cls-65" x="80.07" y="441.8" width="8.01" height="8.01"/><rect class="cls-66" x="72.07" y="441.8" width="8.01" height="8.01"/><rect class="cls-67" x="64.06" y="441.8" width="8.01" height="8.01"/><rect class="cls-68" x="56.05" y="441.8" width="8.01" height="8.01"/><rect class="cls-69" x="48.05" y="441.8" width="8.01" height="8.01"/><rect class="cls-70" x="40.04" y="441.8" width="8.01" height="8.01"/><rect class="cls-71" x="32.03" y="441.8" width="8.01" height="8.01"/><rect class="cls-72" x="24.02" y="441.8" width="8.01" height="8.01"/><rect class="cls-73" x="16.02" y="441.8" width="8.01" height="8.01"/><rect class="cls-54" x="168.16" y="433.79" width="8.01" height="8.01"/><rect class="cls-74" x="160.15" y="433.79" width="8.01" height="8.01"/><rect class="cls-56" x="152.14" y="433.79" width="8.01" height="8.01"/><rect class="cls-75" x="144.13" y="433.79" width="8.01" height="8.01"/><rect class="cls-76" x="136.13" y="433.79" width="8.01" height="8.01"/><rect class="cls-77" x="128.12" y="433.8" width="8.01" height="8"/><rect class="cls-60" x="120.11" y="433.8" width="8.01" height="8"/><rect class="cls-78" x="96.09" y="433.8" width="8.01" height="8"/><rect class="cls-64" x="88.08" y="433.79" width="8.01" height="8.01"/><rect class="cls-65" x="80.07" y="433.79" width="8.01" height="8.01"/><rect class="cls-66" x="72.07" y="433.79" width="8.01" height="8.01"/><rect class="cls-67" x="64.06" y="433.79" width="8.01" height="8.01"/><rect class="cls-68" x="56.05" y="433.79" width="8.01" height="8.01"/><rect class="cls-69" x="48.05" y="433.79" width="8.01" height="8.01"/><rect class="cls-70" x="40.04" y="433.79" width="8.01" height="8.01"/><rect class="cls-79" x="32.03" y="433.79" width="8.01" height="8.01"/><rect class="cls-80" x="24.02" y="433.79" width="8.01" height="8.01"/><rect class="cls-81" x="16.02" y="433.79" width="8.01" height="8.01"/><rect class="cls-82" x="168.16" y="425.79" width="8.01" height="8.01"/><rect class="cls-83" x="160.15" y="425.79" width="8.01" height="8.01"/><rect class="cls-84" x="152.14" y="425.79" width="8.01" height="8.01"/><rect class="cls-85" x="144.14" y="425.79" width="8" height="8.01"/><rect class="cls-86" x="136.13" y="425.79" width="8.01" height="8.01"/><rect class="cls-87" x="96.09" y="425.79" width="8.01" height="8.01"/><rect class="cls-64" x="88.08" y="425.79" width="8.01" height="8.01"/><rect class="cls-65" x="80.07" y="425.79" width="8.01" height="8.01"/><rect class="cls-66" x="72.07" y="425.79" width="8.01" height="8.01"/><rect class="cls-67" x="64.06" y="425.79" width="8.01" height="8.01"/><rect class="cls-68" x="56.05" y="425.79" width="8.01" height="8.01"/><rect class="cls-69" x="48.05" y="425.79" width="8" height="8.01"/><rect class="cls-70" x="40.04" y="425.79" width="8.01" height="8.01"/><rect class="cls-88" x="32.03" y="425.79" width="8.01" height="8.01"/><rect class="cls-89" x="24.02" y="425.79" width="8.01" height="8.01"/><rect class="cls-90" x="16.02" y="425.79" width="8.01" height="8.01"/><rect class="cls-82" x="168.16" y="417.78" width="8.01" height="8.01"/><rect class="cls-83" x="160.15" y="417.78" width="8.01" height="8.01"/><rect class="cls-87" x="96.09" y="417.78" width="8.01" height="8.01"/><rect class="cls-64" x="88.08" y="417.78" width="8.01" height="8.01"/><rect class="cls-65" x="80.07" y="417.78" width="8.01" height="8.01"/><rect class="cls-66" x="72.07" y="417.78" width="8.01" height="8.01"/><rect class="cls-67" x="64.06" y="417.78" width="8.01" height="8.01"/><rect class="cls-70" x="40.04" y="417.78" width="8.01" height="8.01"/><rect class="cls-88" x="32.03" y="417.78" width="8.01" height="8.01"/><rect class="cls-89" x="24.02" y="417.78" width="8.01" height="8.01"/><rect class="cls-91" x="16.02" y="417.78" width="8.01" height="8.01"/><rect class="cls-87" x="96.09" y="409.77" width="8.01" height="8.01"/><rect class="cls-64" x="88.08" y="409.77" width="8.01" height="8.01"/><rect class="cls-65" x="80.08" y="409.77" width="8" height="8.01"/><rect class="cls-66" x="72.07" y="409.77" width="8.01" height="8.01"/><rect class="cls-67" x="64.06" y="409.77" width="8.01" height="8.01"/><rect class="cls-88" x="32.03" y="409.77" width="8.01" height="8.01"/><rect class="cls-89" x="24.02" y="409.77" width="8.01" height="8.01"/><rect class="cls-92" x="16.02" y="409.77" width="8.01" height="8.01"/><rect class="cls-93" x="96.09" y="401.77" width="8.01" height="8"/><rect class="cls-66" x="72.07" y="401.77" width="8.01" height="8"/><rect class="cls-94" x="32.03" y="401.77" width="8.01" height="8"/><rect class="cls-95" x="96.09" y="393.76" width="8.01" height="8.01"/><rect class="cls-85" x="144.14" y="56.79" width="8" height="8.01"/><rect class="cls-96" x="144.14" y="48.78" width="8" height="8.01"/><rect class="cls-97" x="152.14" y="40.77" width="8.01" height="8.01"/><rect class="cls-98" x="144.14" y="40.77" width="8" height="8.01"/><rect class="cls-99" x="112.11" y="40.77" width="8" height="8.01"/><rect class="cls-100" x="160.15" y="32.77" width="8.01" height="8"/><rect class="cls-101" x="152.14" y="32.76" width="8.01" height="8.01"/><rect class="cls-102" x="144.13" y="32.76" width="8.01" height="8.01"/><rect class="cls-103" x="136.13" y="32.77" width="8.01" height="8"/><rect class="cls-104" x="128.12" y="32.77" width="8.01" height="8"/><rect class="cls-105" x="120.11" y="32.77" width="8.01" height="8"/><rect class="cls-106" x="112.1" y="32.76" width="8.01" height="8.01"/><rect class="cls-107" x="104.1" y="32.77" width="8.01" height="8"/><rect class="cls-93" x="96.09" y="32.77" width="8.01" height="8"/><rect class="cls-68" x="56.05" y="32.77" width="8.01" height="8"/><rect class="cls-69" x="48.05" y="32.77" width="8" height="8"/><rect class="cls-108" x="40.04" y="32.77" width="8.01" height="8"/><rect class="cls-94" x="32.03" y="32.77" width="8.01" height="8"/><rect class="cls-109" x="24.02" y="32.77" width="8.01" height="8"/><rect class="cls-110" x="16.02" y="32.77" width="8.01" height="8"/><rect class="cls-111" x="168.16" y="24.76" width="8.01" height="8.01"/><rect class="cls-100" x="160.15" y="24.76" width="8.01" height="8.01"/><rect class="cls-101" x="152.14" y="24.76" width="8.01" height="8.01"/><rect class="cls-112" x="144.13" y="24.76" width="8.01" height="8.01"/><rect class="cls-113" x="136.13" y="24.76" width="8.01" height="8.01"/><rect class="cls-114" x="128.12" y="24.76" width="8.01" height="8.01"/><rect class="cls-105" x="120.11" y="24.76" width="8.01" height="8.01"/><rect class="cls-106" x="112.1" y="24.76" width="8.01" height="8.01"/><rect class="cls-107" x="104.1" y="24.76" width="8.01" height="8.01"/><rect class="cls-95" x="96.09" y="24.76" width="8.01" height="8.01"/><rect class="cls-67" x="64.06" y="24.76" width="8.01" height="8.01"/><rect class="cls-115" x="56.05" y="24.76" width="8.01" height="8.01"/><rect class="cls-116" x="48.05" y="24.76" width="8.01" height="8.01"/><rect class="cls-117" x="40.04" y="24.76" width="8.01" height="8.01"/><rect class="cls-118" x="32.03" y="24.76" width="8.01" height="8.01"/><rect class="cls-119" x="24.02" y="24.76" width="8.01" height="8.01"/><rect class="cls-120" x="16.02" y="24.76" width="8.01" height="8.01"/><rect class="cls-111" x="168.16" y="16.75" width="8.01" height="8.01"/><rect class="cls-100" x="160.15" y="16.75" width="8.01" height="8.01"/><rect class="cls-101" x="152.14" y="16.75" width="8.01" height="8.01"/><rect class="cls-121" x="144.13" y="16.75" width="8.01" height="8.01"/><rect class="cls-122" x="136.13" y="16.75" width="8.01" height="8.01"/><rect class="cls-123" x="128.12" y="16.75" width="8.01" height="8.01"/><rect class="cls-105" x="120.11" y="16.75" width="8.01" height="8.01"/><rect class="cls-106" x="112.1" y="16.75" width="8.01" height="8.01"/><rect class="cls-107" x="104.1" y="16.75" width="8.01" height="8.01"/><rect class="cls-124" x="96.09" y="16.75" width="8.01" height="8.01"/><rect class="cls-64" x="88.08" y="16.75" width="8.01" height="8.01"/><rect class="cls-67" x="64.06" y="16.75" width="8.01" height="8.01"/><rect class="cls-125" x="56.05" y="16.75" width="8.01" height="8.01"/><rect class="cls-126" x="48.05" y="16.75" width="8.01" height="8.01"/><rect class="cls-127" x="40.04" y="16.75" width="8.01" height="8.01"/><rect class="cls-128" x="32.03" y="16.75" width="8.01" height="8.01"/><rect class="cls-129" x="24.02" y="16.75" width="8.01" height="8.01"/><rect class="cls-130" x="16.02" y="16.75" width="8.01" height="8.01"/><rect class="cls-111" x="168.16" y="8.74" width="8.01" height="8.01"/><rect class="cls-100" x="160.15" y="8.74" width="8.01" height="8.01"/><rect class="cls-56" x="152.14" y="8.74" width="8.01" height="8.01"/><rect class="cls-131" x="144.13" y="8.74" width="8.01" height="8.01"/><rect class="cls-132" x="136.13" y="8.74" width="8.01" height="8.01"/><rect class="cls-133" x="128.12" y="8.74" width="8.01" height="8.01"/><rect class="cls-60" x="120.11" y="8.74" width="8.01" height="8.01"/><rect class="cls-134" x="112.1" y="8.74" width="8.01" height="8.01"/><rect class="cls-135" x="104.1" y="8.74" width="8.01" height="8.01"/><rect class="cls-136" x="96.09" y="8.74" width="8.01" height="8.01"/><rect class="cls-64" x="88.08" y="8.74" width="8.01" height="8.01"/><rect class="cls-65" x="80.08" y="8.74" width="8" height="8.01"/><rect class="cls-66" x="72.07" y="8.74" width="8.01" height="8.01"/><rect class="cls-67" x="64.06" y="8.74" width="8.01" height="8.01"/><rect class="cls-137" x="56.05" y="8.74" width="8.01" height="8.01"/><rect class="cls-138" x="48.05" y="8.74" width="8.01" height="8.01"/><rect class="cls-139" x="40.04" y="8.74" width="8.01" height="8.01"/><rect class="cls-88" x="32.03" y="8.74" width="8.01" height="8.01"/><rect class="cls-89" x="24.02" y="8.74" width="8.01" height="8.01"/><rect class="cls-140" x="16.02" y="8.74" width="8.01" height="8.01"/><rect class="cls-111" x="168.16" y="0.73" width="8.01" height="8.01"/><rect class="cls-100" x="160.15" y="0.73" width="8.01" height="8.01"/><rect class="cls-56" x="152.14" y="0.73" width="8.01" height="8.01"/><rect class="cls-75" x="144.13" y="0.73" width="8.01" height="8.01"/><rect class="cls-76" x="136.13" y="0.73" width="8.01" height="8.01"/><rect class="cls-77" x="128.12" y="0.73" width="8.01" height="8.01"/><rect class="cls-60" x="120.11" y="0.73" width="8.01" height="8.01"/><rect class="cls-141" x="112.1" y="0.73" width="8.01" height="8.01"/><rect class="cls-142" x="104.1" y="0.73" width="8.01" height="8.01"/><rect class="cls-143" x="96.09" y="0.73" width="8.01" height="8.01"/><rect class="cls-64" x="88.08" y="0.73" width="8.01" height="8.01"/><rect class="cls-65" x="80.07" y="0.73" width="8.01" height="8.01"/><rect class="cls-66" x="72.07" y="0.73" width="8.01" height="8.01"/><rect class="cls-67" x="64.06" y="0.73" width="8.01" height="8.01"/><rect class="cls-68" x="56.05" y="0.73" width="8.01" height="8.01"/><rect class="cls-69" x="48.05" y="0.73" width="8.01" height="8.01"/><rect class="cls-70" x="40.04" y="0.73" width="8.01" height="8.01"/><rect class="cls-88" x="32.03" y="0.73" width="8.01" height="8.01"/><rect class="cls-89" x="24.02" y="0.73" width="8.01" height="8.01"/><rect class="cls-144" x="16.02" y="0.73" width="8.01" height="8.01"/></g></g></svg>