<svg xmlns="http://www.w3.org/2000/svg" viewBox="0 0 392.4 280"><defs><style>.cls-1{fill:#fcee90;}.cls-2{fill:#fcee68;}.cls-3{fill:#fff174;}.cls-4{fill:#df4700;}.cls-5{fill:#fbe03b;}.cls-6{fill:#fff;}.cls-7{fill:#fbb83b;}.cls-8{fill:#fbb03b;}</style></defs><title>bird</title><g id="Layer_2" data-name="Layer 2"><g id="Layer_1-2" data-name="Layer 1"><rect x="228.9" y="252" width="32.7" height="28"/><rect x="196.2" y="252" width="32.7" height="28"/><rect x="163.5" y="252" width="32.7" height="28"/><rect x="98.1" y="252" width="32.7" height="28"/><rect x="327" y="224" width="32.7" height="28"/><rect x="294.3" y="224" width="32.7" height="28"/><rect x="261.6" y="224" width="32.7" height="28"/><rect x="228.9" y="224" width="32.7" height="28"/><rect class="cls-1" x="196.2" y="224" width="32.7" height="28"/><rect class="cls-1" x="163.5" y="224" width="32.7" height="28"/><rect x="130.8" y="252" width="32.7" height="28"/><rect class="cls-2" x="130.8" y="224" width="32.7" height="28"/><rect class="cls-3" x="98.1" y="224" width="32.7" height="28"/><rect x="65.4" y="224" width="32.7" height="28"/><rect class="cls-4" x="327" y="196" width="32.7" height="28"/><rect class="cls-4" x="294.3" y="196" width="32.7" height="28"/><rect class="cls-4" x="261.6" y="196" width="32.7" height="28"/><rect class="cls-4" x="228.9" y="196" width="32.7" height="28"/><rect x="196.2" y="196" width="32.7" height="28"/><rect class="cls-1" x="163.5" y="196" width="32.7" height="28"/><rect class="cls-5" x="130.8" y="196" width="32.7" height="28"/><rect class="cls-5" x="98.1" y="196" width="32.7" height="28"/><rect class="cls-3" x="65.4" y="196" width="32.7" height="28"/><rect x="32.7" y="196" width="32.7" height="28"/><rect class="cls-4" x="327" y="168" width="32.7" height="28"/><rect class="cls-4" x="294.3" y="168" width="32.7" height="28"/><rect class="cls-4" x="261.6" y="168" width="32.7" height="28"/><rect x="228.9" y="168" width="32.7" height="28"/><rect class="cls-1" x="196.2" y="168" width="32.7" height="28"/><rect class="cls-5" x="163.5" y="168" width="32.7" height="28"/><rect class="cls-5" x="130.8" y="168" width="32.7" height="28"/><rect class="cls-5" x="98.1" y="168" width="32.7" height="28"/><rect class="cls-5" x="65.4" y="168" width="32.7" height="28"/><rect class="cls-3" x="32.7" y="168" width="32.7" height="28"/><rect x="327" y="140" width="32.7" height="28"/><rect x="294.3" y="140" width="32.7" height="28"/><rect x="261.6" y="140" width="32.7" height="28"/><rect x="228.9" y="140" width="32.7" height="28"/><rect class="cls-5" x="196.2" y="140" width="32.7" height="28"/><rect class="cls-5" x="163.5" y="140" width="32.7" height="28"/><rect class="cls-5" x="130.8" y="140" width="32.7" height="28"/><rect class="cls-5" x="98.1" y="140" width="32.7" height="28"/><rect class="cls-5" x="65.4" y="140" width="32.7" height="28"/><rect class="cls-5" x="32.7" y="140" width="32.7" height="28"/><rect x="327" y="112" width="32.7" height="28"/><rect class="cls-6" x="294.3" y="112" width="32.7" height="28"/><rect class="cls-6" x="261.6" y="112" width="32.7" height="28"/><rect class="cls-6" x="228.9" y="112" width="32.7" height="28"/><rect x="196.2" y="112" width="32.7" height="28"/><rect class="cls-5" x="163.5" y="112" width="32.7" height="28"/><rect class="cls-5" x="130.8" y="112" width="32.7" height="28"/><rect class="cls-5" x="98.1" y="112" width="32.7" height="28"/><rect class="cls-5" x="65.4" y="112" width="32.7" height="28"/><rect class="cls-5" x="32.7" y="112" width="32.7" height="28"/><rect x="327" y="84" width="32.7" height="28"/><rect class="cls-6" x="294.3" y="84" width="32.7" height="28"/><rect x="261.6" y="84" width="32.7" height="28"/><rect class="cls-6" x="228.9" y="84" width="32.7" height="28"/><rect class="cls-6" x="196.2" y="84" width="32.7" height="28"/><rect x="163.5" y="84" width="32.7" height="28"/><rect class="cls-5" x="130.8" y="84" width="32.7" height="28"/><rect class="cls-5" x="98.1" y="84" width="32.7" height="28"/><rect class="cls-5" x="32.7" y="84" width="65.4" height="28"/><rect x="327" y="56" width="32.7" height="28"/><rect class="cls-6" x="294.3" y="56" width="32.7" height="28"/><rect x="261.6" y="56" width="32.7" height="28"/><rect class="cls-6" x="228.9" y="56" width="32.7" height="28"/><rect class="cls-6" x="196.2" y="56" width="32.7" height="28"/><rect x="163.5" y="56" width="32.7" height="28"/><rect class="cls-5" x="130.8" y="56" width="32.7" height="28"/><rect class="cls-5" x="98.1" y="56" width="32.7" height="28"/><rect class="cls-7" x="65.4" y="56" width="32.7" height="28"/><rect x="32.7" y="56" width="32.7" height="28"/><rect x="294.3" y="28" width="32.7" height="28"/><rect class="cls-6" x="261.6" y="28" width="32.7" height="28"/><rect class="cls-6" x="228.9" y="28" width="32.7" height="28"/><rect x="196.2" y="28" width="32.7" height="28"/><rect class="cls-8" x="163.5" y="28" width="32.7" height="28"/><rect class="cls-7" x="130.8" y="28" width="32.7" height="28"/><rect class="cls-7" x="98.1" y="28" width="32.7" height="28"/><rect x="261.6" width="32.7" height="28"/><rect x="228.9" width="32.7" height="28"/><rect x="196.2" width="32.7" height="28"/><rect x="163.5" width="32.7" height="28"/><rect x="130.8" width="32.7" height="28"/><rect x="98.1" width="32.7" height="28"/><rect x="65.4" y="28" width="32.7" height="28"/><rect y="168" width="32.7" height="28"/><rect y="140" width="32.7" height="28"/><rect y="112" width="32.7" height="28"/><rect y="84" width="32.7" height="28"/><rect x="359.7" y="196" width="32.7" height="28"/><rect x="359.7" y="168" width="32.7" height="28"/></g></g></svg>