<svg xmlns="http://www.w3.org/2000/svg" viewBox="0 0 160.15 450"><defs><style>.cls-1{fill:#fff;}.cls-2{fill:#3d3b37;}.cls-3{fill:#534a31;}.cls-4{fill:#332d26;}.cls-5{fill:#716c47;}.cls-6{fill:#71654b;}.cls-7{fill:#9d986a;}.cls-8{fill:#a09d78;}.cls-9{fill:#4e462f;}.cls-10{fill:#837e55;}.cls-11{fill:#a19b71;}.cls-12{fill:#a19c71;}.cls-13{fill:#f3efc2;}.cls-14{fill:#777055;}.cls-15{fill:#928e6f;}.cls-16{fill:#bdbc8b;}.cls-17{fill:#e7e5b8;}.cls-18{fill:#eeeac7;}.cls-19{fill:#7e795d;}.cls-20{fill:#7d7a56;}.cls-21{fill:#57535d;}.cls-22{fill:#52482f;}.cls-23{fill:#6c6741;}.cls-24{fill:#6c6047;}.cls-25{fill:#999466;}.cls-26{fill:#9c976c;}.cls-27{fill:#807b5f;}.cls-28{fill:#96936f;}.cls-29{fill:#5e5a64;}.cls-30{fill:#3e3c3b;}.cls-31{fill:#514731;}.cls-32{fill:#33301a;}.cls-33{fill:#6c6547;}.cls-34{fill:#676345;}.cls-35{fill:#9c976d;}.cls-36{fill:#7e7a5d;}.cls-37{fill:#9b9774;}.cls-38{fill:#5e5a61;}.cls-39{fill:#5d5960;}.cls-40{fill:#5a575e;}.cls-41{fill:#a0976e;}.cls-42{fill:#837f63;}.cls-43{fill:#c6bd94;}.cls-44{fill:#6e674e;}.cls-45{fill:#332e21;}.cls-46{fill:#524a34;}.cls-47{fill:#554c36;}.cls-48{fill:#4f4831;}.cls-49{fill:#332d29;}.cls-50{fill:#6c6745;}.cls-51{fill:#6a6147;}.cls-52{fill:#979566;}.cls-53{fill:#9e9e78;}.cls-54{fill:#524e36;}.cls-55{fill:#9c976e;}.cls-56{fill:#eeebc5;}.cls-57{fill:#9b9777;}.cls-58{fill:#575358;}.cls-59{fill:#423a3b;}.cls-60{fill:#67613f;}.cls-61{fill:#746b51;}.cls-62{fill:#9d9a6c;}.cls-63{fill:#b8b787;}.cls-64{fill:#e2e1b4;}.cls-65{fill:#eae7c2;}.cls-66{fill:#7c775c;}.cls-67{fill:#7f7b5b;}.cls-68{fill:#4f4b50;}.cls-69{fill:#696341;}.cls-70{fill:#877e63;}.cls-71{fill:#9c9a6c;}.cls-72{fill:#9b9269;}.cls-73{fill:#c8c796;}.cls-74{fill:#b9b88b;}.cls-75{fill:#e4e1bb;}.cls-76{fill:#7d785d;}.cls-77{fill:#a09c7d;}.cls-78{fill:#535054;}.cls-79{fill:#6d6842;}.cls-80{fill:#74674e;}.cls-81{fill:#9a9567;}.cls-82{fill:#544c35;}.cls-83{fill:#8a855c;}.cls-84{fill:#9b966b;}.cls-85{fill:#c1c090;}.cls-86{fill:#e1e0b3;}.cls-87{fill:#ece9c6;}.cls-88{fill:#50494e;}.cls-89{fill:#504831;}.cls-90{fill:#868158;}.cls-91{fill:#99946a;}.cls-92{fill:#4f494e;}</style></defs><title>Asset 3</title><g id="Layer_2" data-name="Layer 2"><g id="Layer_1-2" data-name="Layer 1"><rect class="cls-1" x="0.08" width="160" height="450"/><rect class="cls-2" x="152.14" y="441.52" width="8.01" height="8.01"/><rect class="cls-3" x="144.13" y="441.52" width="8.01" height="8.01"/><rect class="cls-4" x="136.13" y="441.52" width="8.01" height="8.01"/><rect class="cls-5" x="128.12" y="441.52" width="8.01" height="8.01"/><rect class="cls-6" x="120.11" y="441.52" width="8.01" height="8.01"/><rect class="cls-7" x="112.1" y="441.52" width="8.01" height="8.01"/><rect class="cls-8" x="104.1" y="441.52" width="8.01" height="8.01"/><rect class="cls-9" x="96.09" y="441.52" width="8" height="8.01"/><rect class="cls-10" x="88.08" y="441.52" width="8.01" height="8.01"/><rect class="cls-11" x="80.07" y="441.52" width="8.01" height="8.01"/><rect class="cls-12" x="72.07" y="441.52" width="8.01" height="8.01"/><rect class="cls-13" x="64.06" y="441.52" width="8.01" height="8.01"/><rect class="cls-14" x="56.05" y="441.52" width="8.01" height="8.01"/><rect class="cls-15" x="48.04" y="441.52" width="8.01" height="8.01"/><rect class="cls-16" x="40.04" y="441.52" width="8.01" height="8.01"/><rect class="cls-17" x="32.03" y="441.52" width="8.01" height="8.01"/><rect class="cls-18" x="24.02" y="441.52" width="8.01" height="8.01"/><rect class="cls-19" x="16.01" y="441.52" width="8.01" height="8.01"/><rect class="cls-20" x="8.01" y="441.52" width="8.01" height="8.01"/><rect class="cls-21" y="441.52" width="8.01" height="8.01"/><rect class="cls-2" x="152.14" y="433.52" width="8.01" height="8.01"/><rect class="cls-22" x="144.13" y="433.52" width="8.01" height="8.01"/><rect class="cls-4" x="136.13" y="433.52" width="8.01" height="8.01"/><rect class="cls-23" x="128.12" y="433.52" width="8.01" height="8.01"/><rect class="cls-24" x="120.11" y="433.52" width="8.01" height="8.01"/><rect class="cls-25" x="112.1" y="433.52" width="8.01" height="8"/><rect class="cls-8" x="104.09" y="433.52" width="8.01" height="8"/><rect class="cls-26" x="80.07" y="433.52" width="8.01" height="8"/><rect class="cls-12" x="72.07" y="433.52" width="8.01" height="8.01"/><rect class="cls-13" x="64.06" y="433.52" width="8.01" height="8.01"/><rect class="cls-14" x="56.05" y="433.52" width="8.01" height="8.01"/><rect class="cls-15" x="48.04" y="433.52" width="8.01" height="8.01"/><rect class="cls-16" x="40.04" y="433.52" width="8.01" height="8.01"/><rect class="cls-17" x="32.03" y="433.52" width="8.01" height="8.01"/><rect class="cls-18" x="24.02" y="433.52" width="8.01" height="8.01"/><rect class="cls-27" x="16.01" y="433.52" width="8.01" height="8.01"/><rect class="cls-28" x="8.01" y="433.52" width="8.01" height="8.01"/><rect class="cls-29" y="433.52" width="8.01" height="8.01"/><rect class="cls-30" x="152.14" y="425.51" width="8.01" height="8.01"/><rect class="cls-31" x="144.13" y="425.51" width="8.01" height="8.01"/><rect class="cls-32" x="136.12" y="425.51" width="8.01" height="8.01"/><rect class="cls-33" x="128.12" y="425.51" width="8" height="8.01"/><rect class="cls-34" x="120.11" y="425.51" width="8.01" height="8.01"/><rect class="cls-35" x="80.07" y="425.51" width="8.01" height="8.01"/><rect class="cls-12" x="72.07" y="425.51" width="8.01" height="8.01"/><rect class="cls-13" x="64.06" y="425.51" width="8.01" height="8.01"/><rect class="cls-14" x="56.05" y="425.51" width="8.01" height="8.01"/><rect class="cls-15" x="48.04" y="425.51" width="8.01" height="8.01"/><rect class="cls-16" x="40.03" y="425.51" width="8.01" height="8.01"/><rect class="cls-17" x="32.03" y="425.51" width="8" height="8.01"/><rect class="cls-18" x="24.02" y="425.51" width="8.01" height="8.01"/><rect class="cls-36" x="16.01" y="425.51" width="8.01" height="8.01"/><rect class="cls-37" x="8.01" y="425.51" width="8.01" height="8.01"/><rect class="cls-38" y="425.51" width="8.01" height="8.01"/><rect class="cls-30" x="152.14" y="417.5" width="8.01" height="8.01"/><rect class="cls-31" x="144.13" y="417.5" width="8.01" height="8.01"/><rect class="cls-35" x="80.07" y="417.5" width="8.01" height="8.01"/><rect class="cls-12" x="72.07" y="417.5" width="8.01" height="8.01"/><rect class="cls-13" x="64.06" y="417.5" width="8.01" height="8.01"/><rect class="cls-14" x="56.05" y="417.5" width="8.01" height="8.01"/><rect class="cls-15" x="48.04" y="417.5" width="8.01" height="8.01"/><rect class="cls-18" x="24.02" y="417.5" width="8.01" height="8.01"/><rect class="cls-36" x="16.01" y="417.5" width="8.01" height="8.01"/><rect class="cls-37" x="8.01" y="417.5" width="8.01" height="8.01"/><rect class="cls-39" y="417.5" width="8.01" height="8.01"/><rect class="cls-35" x="80.07" y="409.49" width="8.01" height="8.01"/><rect class="cls-12" x="72.06" y="409.49" width="8.01" height="8.01"/><rect class="cls-13" x="64.06" y="409.49" width="8" height="8.01"/><rect class="cls-14" x="56.05" y="409.49" width="8.01" height="8.01"/><rect class="cls-15" x="48.04" y="409.49" width="8.01" height="8.01"/><rect class="cls-36" x="16.01" y="409.49" width="8.01" height="8.01"/><rect class="cls-37" x="8" y="409.49" width="8.01" height="8.01"/><rect class="cls-40" y="409.49" width="8.01" height="8.01"/><rect class="cls-41" x="80.07" y="401.49" width="8.01" height="8"/><rect class="cls-14" x="56.05" y="401.49" width="8.01" height="8"/><rect class="cls-42" x="16.01" y="401.49" width="8.01" height="8"/><rect class="cls-43" x="80.07" y="393.48" width="8.01" height="8.01"/><rect class="cls-33" x="128.12" y="56.51" width="8" height="8.01"/><rect class="cls-44" x="128.12" y="48.5" width="8" height="8.01"/><rect class="cls-45" x="136.12" y="40.49" width="8.01" height="8.01"/><rect class="cls-46" x="128.12" y="40.49" width="8" height="8.01"/><rect class="cls-47" x="96.09" y="40.49" width="8" height="8.01"/><rect class="cls-48" x="144.13" y="32.49" width="8.01" height="8"/><rect class="cls-49" x="136.13" y="32.49" width="8.01" height="8.01"/><rect class="cls-50" x="128.12" y="32.49" width="8.01" height="8.01"/><rect class="cls-51" x="120.11" y="32.49" width="8.01" height="8"/><rect class="cls-52" x="112.1" y="32.49" width="8.01" height="8"/><rect class="cls-53" x="104.09" y="32.49" width="8.01" height="8"/><rect class="cls-54" x="96.09" y="32.49" width="8.01" height="8.01"/><rect class="cls-55" x="88.08" y="32.49" width="8.01" height="8"/><rect class="cls-41" x="80.07" y="32.49" width="8.01" height="8"/><rect class="cls-16" x="40.03" y="32.49" width="8.01" height="8"/><rect class="cls-17" x="32.03" y="32.49" width="8" height="8"/><rect class="cls-56" x="24.02" y="32.49" width="8.01" height="8"/><rect class="cls-42" x="16.01" y="32.49" width="8.01" height="8"/><rect class="cls-57" x="8" y="32.49" width="8.01" height="8"/><rect class="cls-58" y="32.49" width="8.01" height="8"/><rect class="cls-59" x="152.14" y="24.48" width="8.01" height="8.01"/><rect class="cls-48" x="144.13" y="24.48" width="8.01" height="8.01"/><rect class="cls-49" x="136.13" y="24.48" width="8.01" height="8.01"/><rect class="cls-60" x="128.12" y="24.48" width="8.01" height="8.01"/><rect class="cls-61" x="120.11" y="24.48" width="8.01" height="8.01"/><rect class="cls-62" x="112.1" y="24.48" width="8.01" height="8.01"/><rect class="cls-53" x="104.1" y="24.48" width="8.01" height="8.01"/><rect class="cls-54" x="96.09" y="24.48" width="8.01" height="8.01"/><rect class="cls-55" x="88.08" y="24.48" width="8.01" height="8.01"/><rect class="cls-43" x="80.07" y="24.48" width="8.01" height="8.01"/><rect class="cls-15" x="48.04" y="24.48" width="8.01" height="8.01"/><rect class="cls-63" x="40.04" y="24.48" width="8.01" height="8.01"/><rect class="cls-64" x="32.03" y="24.48" width="8.01" height="8.01"/><rect class="cls-65" x="24.02" y="24.48" width="8.01" height="8.01"/><rect class="cls-66" x="16.01" y="24.48" width="8.01" height="8.01"/><rect class="cls-67" x="8.01" y="24.48" width="8.01" height="8.01"/><rect class="cls-68" y="24.48" width="8.01" height="8.01"/><rect class="cls-59" x="152.14" y="16.47" width="8.01" height="8.01"/><rect class="cls-48" x="144.13" y="16.47" width="8.01" height="8.01"/><rect class="cls-49" x="136.13" y="16.47" width="8.01" height="8.01"/><rect class="cls-69" x="128.12" y="16.47" width="8.01" height="8.01"/><rect class="cls-70" x="120.11" y="16.47" width="8.01" height="8.01"/><rect class="cls-71" x="112.1" y="16.47" width="8.01" height="8.01"/><rect class="cls-53" x="104.1" y="16.47" width="8.01" height="8.01"/><rect class="cls-54" x="96.09" y="16.47" width="8.01" height="8.01"/><rect class="cls-55" x="88.08" y="16.47" width="8.01" height="8.01"/><rect class="cls-72" x="80.07" y="16.47" width="8.01" height="8.01"/><rect class="cls-12" x="72.06" y="16.47" width="8.01" height="8.01"/><rect class="cls-15" x="48.04" y="16.47" width="8.01" height="8.01"/><rect class="cls-73" x="40.04" y="16.47" width="8.01" height="8.01"/><rect class="cls-74" x="32.03" y="16.47" width="8.01" height="8.01"/><rect class="cls-75" x="24.02" y="16.47" width="8.01" height="8.01"/><rect class="cls-76" x="16.01" y="16.47" width="8.01" height="8.01"/><rect class="cls-77" x="8.01" y="16.47" width="8.01" height="8.01"/><rect class="cls-78" y="16.47" width="8.01" height="8.01"/><rect class="cls-59" x="152.14" y="8.46" width="8.01" height="8.01"/><rect class="cls-48" x="144.13" y="8.46" width="8.01" height="8.01"/><rect class="cls-4" x="136.13" y="8.46" width="8.01" height="8.01"/><rect class="cls-79" x="128.12" y="8.46" width="8.01" height="8.01"/><rect class="cls-80" x="120.11" y="8.46" width="8.01" height="8.01"/><rect class="cls-81" x="112.1" y="8.46" width="8.01" height="8.01"/><rect class="cls-8" x="104.1" y="8.46" width="8.01" height="8.01"/><rect class="cls-82" x="96.09" y="8.46" width="8.01" height="8.01"/><rect class="cls-83" x="88.08" y="8.46" width="8.01" height="8.01"/><rect class="cls-84" x="80.07" y="8.46" width="8.01" height="8.01"/><rect class="cls-12" x="72.07" y="8.46" width="8.01" height="8.01"/><rect class="cls-13" x="64.06" y="8.46" width="8" height="8.01"/><rect class="cls-14" x="56.05" y="8.46" width="8.01" height="8.01"/><rect class="cls-15" x="48.04" y="8.46" width="8.01" height="8.01"/><rect class="cls-85" x="40.04" y="8.46" width="8.01" height="8.01"/><rect class="cls-86" x="32.03" y="8.46" width="8.01" height="8.01"/><rect class="cls-87" x="24.02" y="8.46" width="8.01" height="8.01"/><rect class="cls-36" x="16.01" y="8.46" width="8.01" height="8.01"/><rect class="cls-37" x="8.01" y="8.46" width="8.01" height="8.01"/><rect class="cls-88" y="8.46" width="8.01" height="8.01"/><rect class="cls-59" x="152.14" y="0.46" width="8.01" height="8.01"/><rect class="cls-48" x="144.13" y="0.46" width="8.01" height="8.01"/><rect class="cls-4" x="136.13" y="0.46" width="8.01" height="8.01"/><rect class="cls-23" x="128.12" y="0.46" width="8.01" height="8.01"/><rect class="cls-24" x="120.11" y="0.46" width="8.01" height="8.01"/><rect class="cls-25" x="112.1" y="0.46" width="8.01" height="8.01"/><rect class="cls-8" x="104.1" y="0.46" width="8.01" height="8.01"/><rect class="cls-89" x="96.09" y="0.46" width="8.01" height="8.01"/><rect class="cls-90" x="88.08" y="0.46" width="8.01" height="8.01"/><rect class="cls-91" x="80.07" y="0.46" width="8.01" height="8.01"/><rect class="cls-12" x="72.07" y="0.46" width="8.01" height="8.01"/><rect class="cls-13" x="64.06" y="0.46" width="8.01" height="8.01"/><rect class="cls-14" x="56.05" y="0.46" width="8.01" height="8.01"/><rect class="cls-15" x="48.04" y="0.46" width="8.01" height="8.01"/><rect class="cls-16" x="40.04" y="0.46" width="8.01" height="8.01"/><rect class="cls-17" x="32.03" y="0.46" width="8.01" height="8.01"/><rect class="cls-18" x="24.02" y="0.46" width="8.01" height="8.01"/><rect class="cls-36" x="16.01" y="0.46" width="8.01" height="8.01"/><rect class="cls-37" x="8.01" y="0.46" width="8.01" height="8.01"/><rect class="cls-92" y="0.46" width="8.01" height="8.01"/></g></g></svg>