<svg xmlns="http://www.w3.org/2000/svg" viewBox="0 0 192.18 497.02"><defs><style>.cls-1{fill:#fff;}.cls-2{fill:#3d3b37;}.cls-3{fill:#534a31;}.cls-4{fill:#332d26;}.cls-5{fill:#716c47;}.cls-6{fill:#71654b;}.cls-7{fill:#9d986a;}.cls-8{fill:#a09d78;}.cls-9{fill:#4e462f;}.cls-10{fill:#837e55;}.cls-11{fill:#a19b71;}.cls-12{fill:#a19c71;}.cls-13{fill:#f3efc2;}.cls-14{fill:#777055;}.cls-15{fill:#928e6f;}.cls-16{fill:#bdbc8b;}.cls-17{fill:#e7e5b8;}.cls-18{fill:#eeeac7;}.cls-19{fill:#7e795d;}.cls-20{fill:#7d7a56;}.cls-21{fill:#57535d;}.cls-22{fill:#52482f;}.cls-23{fill:#6c6741;}.cls-24{fill:#6c6047;}.cls-25{fill:#999466;}.cls-26{fill:#9c976c;}.cls-27{fill:#807b5f;}.cls-28{fill:#96936f;}.cls-29{fill:#5e5a64;}.cls-30{fill:#3e3c3b;}.cls-31{fill:#514731;}.cls-32{fill:#33301a;}.cls-33{fill:#6c6547;}.cls-34{fill:#676345;}.cls-35{fill:#9c976d;}.cls-36{fill:#7e7a5d;}.cls-37{fill:#9b9774;}.cls-38{fill:#5e5a61;}.cls-39{fill:#5d5960;}.cls-40{fill:#5a575e;}.cls-41{fill:#a0976e;}.cls-42{fill:#837f63;}.cls-43{fill:#c6bd94;}.cls-44{fill:#6e674e;}.cls-45{fill:#332e21;}.cls-46{fill:#524a34;}.cls-47{fill:#554c36;}.cls-48{fill:#4f4831;}.cls-49{fill:#332d29;}.cls-50{fill:#6c6745;}.cls-51{fill:#6a6147;}.cls-52{fill:#979566;}.cls-53{fill:#9e9e78;}.cls-54{fill:#524e36;}.cls-55{fill:#9c976e;}.cls-56{fill:#eeebc5;}.cls-57{fill:#9b9777;}.cls-58{fill:#575358;}.cls-59{fill:#423a3b;}.cls-60{fill:#67613f;}.cls-61{fill:#746b51;}.cls-62{fill:#9d9a6c;}.cls-63{fill:#b8b787;}.cls-64{fill:#e2e1b4;}.cls-65{fill:#eae7c2;}.cls-66{fill:#7c775c;}.cls-67{fill:#7f7b5b;}.cls-68{fill:#4f4b50;}.cls-69{fill:#696341;}.cls-70{fill:#877e63;}.cls-71{fill:#9c9a6c;}.cls-72{fill:#9b9269;}.cls-73{fill:#c8c796;}.cls-74{fill:#b9b88b;}.cls-75{fill:#e4e1bb;}.cls-76{fill:#7d785d;}.cls-77{fill:#a09c7d;}.cls-78{fill:#535054;}.cls-79{fill:#6d6842;}.cls-80{fill:#74674e;}.cls-81{fill:#9a9567;}.cls-82{fill:#544c35;}.cls-83{fill:#8a855c;}.cls-84{fill:#9b966b;}.cls-85{fill:#c1c090;}.cls-86{fill:#e1e0b3;}.cls-87{fill:#ece9c6;}.cls-88{fill:#50494e;}.cls-89{fill:#504831;}.cls-90{fill:#868158;}.cls-91{fill:#99946a;}.cls-92{fill:#4f494e;}.cls-93{fill:#323438;}.cls-94{fill:#343228;}.cls-95{fill:#413b30;}.cls-96{fill:#473f30;}.cls-97{fill:#45402b;}.cls-98{fill:#575238;}.cls-99{fill:#4f4931;}.cls-100{fill:#5d573f;}.cls-101{fill:#5c563e;}.cls-102{fill:#615c44;}.cls-103{fill:#635e46;}.cls-104{fill:#7a7656;}.cls-105{fill:#959174;}.cls-106{fill:#989477;}.cls-107{fill:#959073;}.cls-108{fill:#7f7755;}.cls-109{fill:#7f7e67;}.cls-110{fill:#5c5d68;}.cls-111{fill:#343225;}.cls-112{fill:#382e2d;}.cls-113{fill:#3f3630;}.cls-114{fill:#473e36;}.cls-115{fill:#4b4232;}.cls-116{fill:#59503b;}.cls-117{fill:#594f3f;}.cls-118{fill:#6c6252;}.cls-119{fill:#675d4d;}.cls-120{fill:#685d49;}.cls-121{fill:#6a5f4b;}.cls-122{fill:#80785b;}.cls-123{fill:#98917c;}.cls-124{fill:#99927d;}.cls-125{fill:#80785e;}.cls-126{fill:#827a5f;}.cls-127{fill:#5a5c51;}.cls-128{fill:#4a473f;}.cls-129{fill:#4e4b36;}.cls-130{fill:#57543b;}.cls-131{fill:#6a684c;}.cls-132{fill:#71654c;}.cls-133{fill:#83785a;}.cls-134{fill:#847a55;}.cls-135{fill:#a59b76;}.cls-136{fill:#a19772;}.cls-137{fill:#9b9a72;}.cls-138{fill:#9d9c73;}.cls-139{fill:#c5bb98;}.cls-140{fill:#ebebc2;}.cls-141{fill:#e7e7be;}.cls-142{fill:#ccc1a1;}.cls-143{fill:#c2b898;}.cls-144{fill:#a3a39e;}</style></defs><title>hole_1</title><g id="Layer_2" data-name="Layer 2"><g id="Layer_1-2" data-name="Layer 1"><rect class="cls-1" x="16.09" y="23.28" width="160" height="450"/><rect class="cls-2" x="168.16" y="464.8" width="8.01" height="8.01"/><rect class="cls-3" x="160.15" y="464.8" width="8.01" height="8.01"/><rect class="cls-4" x="152.14" y="464.8" width="8.01" height="8.01"/><rect class="cls-5" x="144.13" y="464.8" width="8.01" height="8.01"/><rect class="cls-6" x="136.13" y="464.8" width="8.01" height="8.01"/><rect class="cls-7" x="128.12" y="464.8" width="8.01" height="8.01"/><rect class="cls-8" x="120.11" y="464.8" width="8.01" height="8.01"/><rect class="cls-9" x="112.11" y="464.8" width="8" height="8.01"/><rect class="cls-10" x="104.1" y="464.8" width="8.01" height="8.01"/><rect class="cls-11" x="96.09" y="464.8" width="8.01" height="8.01"/><rect class="cls-12" x="88.08" y="464.8" width="8.01" height="8.01"/><rect class="cls-13" x="80.07" y="464.8" width="8.01" height="8.01"/><rect class="cls-14" x="72.07" y="464.8" width="8.01" height="8.01"/><rect class="cls-15" x="64.06" y="464.8" width="8.01" height="8.01"/><rect class="cls-16" x="56.05" y="464.8" width="8.01" height="8.01"/><rect class="cls-17" x="48.05" y="464.8" width="8.01" height="8.01"/><rect class="cls-18" x="40.04" y="464.8" width="8.01" height="8.01"/><rect class="cls-19" x="32.03" y="464.8" width="8.01" height="8.01"/><rect class="cls-20" x="24.02" y="464.8" width="8.01" height="8.01"/><rect class="cls-21" x="16.02" y="464.8" width="8.01" height="8.01"/><rect class="cls-2" x="168.16" y="456.79" width="8.01" height="8.01"/><rect class="cls-22" x="160.15" y="456.79" width="8.01" height="8.01"/><rect class="cls-4" x="152.14" y="456.79" width="8.01" height="8.01"/><rect class="cls-23" x="144.13" y="456.79" width="8.01" height="8.01"/><rect class="cls-24" x="136.13" y="456.79" width="8.01" height="8.01"/><rect class="cls-25" x="128.12" y="456.8" width="8.01" height="8"/><rect class="cls-8" x="120.11" y="456.8" width="8.01" height="8"/><rect class="cls-26" x="96.09" y="456.8" width="8.01" height="8"/><rect class="cls-12" x="88.08" y="456.79" width="8.01" height="8.01"/><rect class="cls-13" x="80.07" y="456.79" width="8.01" height="8.01"/><rect class="cls-14" x="72.07" y="456.79" width="8.01" height="8.01"/><rect class="cls-15" x="64.06" y="456.79" width="8.01" height="8.01"/><rect class="cls-16" x="56.05" y="456.79" width="8.01" height="8.01"/><rect class="cls-17" x="48.05" y="456.79" width="8.01" height="8.01"/><rect class="cls-18" x="40.04" y="456.79" width="8.01" height="8.01"/><rect class="cls-27" x="32.03" y="456.79" width="8.01" height="8.01"/><rect class="cls-28" x="24.02" y="456.79" width="8.01" height="8.01"/><rect class="cls-29" x="16.02" y="456.79" width="8.01" height="8.01"/><rect class="cls-30" x="168.16" y="448.79" width="8.01" height="8.01"/><rect class="cls-31" x="160.15" y="448.79" width="8.01" height="8.01"/><rect class="cls-32" x="152.14" y="448.79" width="8.01" height="8.01"/><rect class="cls-33" x="144.14" y="448.79" width="8" height="8.01"/><rect class="cls-34" x="136.13" y="448.79" width="8.01" height="8.01"/><rect class="cls-35" x="96.09" y="448.79" width="8.01" height="8.01"/><rect class="cls-12" x="88.08" y="448.79" width="8.01" height="8.01"/><rect class="cls-13" x="80.07" y="448.79" width="8.01" height="8.01"/><rect class="cls-14" x="72.07" y="448.79" width="8.01" height="8.01"/><rect class="cls-15" x="64.06" y="448.79" width="8.01" height="8.01"/><rect class="cls-16" x="56.05" y="448.79" width="8.01" height="8.01"/><rect class="cls-17" x="48.05" y="448.79" width="8" height="8.01"/><rect class="cls-18" x="40.04" y="448.79" width="8.01" height="8.01"/><rect class="cls-36" x="32.03" y="448.79" width="8.01" height="8.01"/><rect class="cls-37" x="24.02" y="448.79" width="8.01" height="8.01"/><rect class="cls-38" x="16.02" y="448.79" width="8.01" height="8.01"/><rect class="cls-30" x="168.16" y="440.78" width="8.01" height="8.01"/><rect class="cls-31" x="160.15" y="440.78" width="8.01" height="8.01"/><rect class="cls-35" x="96.09" y="440.78" width="8.01" height="8.01"/><rect class="cls-12" x="88.08" y="440.78" width="8.01" height="8.01"/><rect class="cls-13" x="80.07" y="440.78" width="8.01" height="8.01"/><rect class="cls-14" x="72.07" y="440.78" width="8.01" height="8.01"/><rect class="cls-15" x="64.06" y="440.78" width="8.01" height="8.01"/><rect class="cls-18" x="40.04" y="440.78" width="8.01" height="8.01"/><rect class="cls-36" x="32.03" y="440.78" width="8.01" height="8.01"/><rect class="cls-37" x="24.02" y="440.78" width="8.01" height="8.01"/><rect class="cls-39" x="16.02" y="440.78" width="8.01" height="8.01"/><rect class="cls-35" x="96.09" y="432.77" width="8.01" height="8.01"/><rect class="cls-12" x="88.08" y="432.77" width="8.01" height="8.01"/><rect class="cls-13" x="80.08" y="432.77" width="8" height="8.01"/><rect class="cls-14" x="72.07" y="432.77" width="8.01" height="8.01"/><rect class="cls-15" x="64.06" y="432.77" width="8.01" height="8.01"/><rect class="cls-36" x="32.03" y="432.77" width="8.01" height="8.01"/><rect class="cls-37" x="24.02" y="432.77" width="8.01" height="8.01"/><rect class="cls-40" x="16.02" y="432.77" width="8.01" height="8.01"/><rect class="cls-41" x="96.09" y="424.77" width="8.01" height="8"/><rect class="cls-14" x="72.07" y="424.77" width="8.01" height="8"/><rect class="cls-42" x="32.03" y="424.77" width="8.01" height="8"/><rect class="cls-43" x="96.09" y="416.76" width="8.01" height="8.01"/><rect class="cls-33" x="144.14" y="79.79" width="8" height="8.01"/><rect class="cls-44" x="144.14" y="71.78" width="8" height="8.01"/><rect class="cls-45" x="152.14" y="63.77" width="8.01" height="8.01"/><rect class="cls-46" x="144.14" y="63.77" width="8" height="8.01"/><rect class="cls-47" x="112.11" y="63.77" width="8" height="8.01"/><rect class="cls-48" x="160.15" y="55.77" width="8.01" height="8"/><rect class="cls-49" x="152.14" y="55.76" width="8.01" height="8.01"/><rect class="cls-50" x="144.13" y="55.76" width="8.01" height="8.01"/><rect class="cls-51" x="136.13" y="55.77" width="8.01" height="8"/><rect class="cls-52" x="128.12" y="55.77" width="8.01" height="8"/><rect class="cls-53" x="120.11" y="55.77" width="8.01" height="8"/><rect class="cls-54" x="112.1" y="55.76" width="8.01" height="8.01"/><rect class="cls-55" x="104.1" y="55.77" width="8.01" height="8"/><rect class="cls-41" x="96.09" y="55.77" width="8.01" height="8"/><rect class="cls-16" x="56.05" y="55.77" width="8.01" height="8"/><rect class="cls-17" x="48.05" y="55.77" width="8" height="8"/><rect class="cls-56" x="40.04" y="55.77" width="8.01" height="8"/><rect class="cls-42" x="32.03" y="55.77" width="8.01" height="8"/><rect class="cls-57" x="24.02" y="55.77" width="8.01" height="8"/><rect class="cls-58" x="16.02" y="55.77" width="8.01" height="8"/><rect class="cls-59" x="168.16" y="47.76" width="8.01" height="8.01"/><rect class="cls-48" x="160.15" y="47.76" width="8.01" height="8.01"/><rect class="cls-49" x="152.14" y="47.76" width="8.01" height="8.01"/><rect class="cls-60" x="144.13" y="47.76" width="8.01" height="8.01"/><rect class="cls-61" x="136.13" y="47.76" width="8.01" height="8.01"/><rect class="cls-62" x="128.12" y="47.76" width="8.01" height="8.01"/><rect class="cls-53" x="120.11" y="47.76" width="8.01" height="8.01"/><rect class="cls-54" x="112.1" y="47.76" width="8.01" height="8.01"/><rect class="cls-55" x="104.1" y="47.76" width="8.01" height="8.01"/><rect class="cls-43" x="96.09" y="47.76" width="8.01" height="8.01"/><rect class="cls-15" x="64.06" y="47.76" width="8.01" height="8.01"/><rect class="cls-63" x="56.05" y="47.76" width="8.01" height="8.01"/><rect class="cls-64" x="48.05" y="47.76" width="8.01" height="8.01"/><rect class="cls-65" x="40.04" y="47.76" width="8.01" height="8.01"/><rect class="cls-66" x="32.03" y="47.76" width="8.01" height="8.01"/><rect class="cls-67" x="24.02" y="47.76" width="8.01" height="8.01"/><rect class="cls-68" x="16.02" y="47.76" width="8.01" height="8.01"/><rect class="cls-59" x="168.16" y="39.75" width="8.01" height="8.01"/><rect class="cls-48" x="160.15" y="39.75" width="8.01" height="8.01"/><rect class="cls-49" x="152.14" y="39.75" width="8.01" height="8.01"/><rect class="cls-69" x="144.13" y="39.75" width="8.01" height="8.01"/><rect class="cls-70" x="136.13" y="39.75" width="8.01" height="8.01"/><rect class="cls-71" x="128.12" y="39.75" width="8.01" height="8.01"/><rect class="cls-53" x="120.11" y="39.75" width="8.01" height="8.01"/><rect class="cls-54" x="112.1" y="39.75" width="8.01" height="8.01"/><rect class="cls-55" x="104.1" y="39.75" width="8.01" height="8.01"/><rect class="cls-72" x="96.09" y="39.75" width="8.01" height="8.01"/><rect class="cls-12" x="88.08" y="39.75" width="8.01" height="8.01"/><rect class="cls-15" x="64.06" y="39.75" width="8.01" height="8.01"/><rect class="cls-73" x="56.05" y="39.75" width="8.01" height="8.01"/><rect class="cls-74" x="48.05" y="39.75" width="8.01" height="8.01"/><rect class="cls-75" x="40.04" y="39.75" width="8.01" height="8.01"/><rect class="cls-76" x="32.03" y="39.75" width="8.01" height="8.01"/><rect class="cls-77" x="24.02" y="39.75" width="8.01" height="8.01"/><rect class="cls-78" x="16.02" y="39.75" width="8.01" height="8.01"/><rect class="cls-59" x="168.16" y="31.74" width="8.01" height="8.01"/><rect class="cls-48" x="160.15" y="31.74" width="8.01" height="8.01"/><rect class="cls-4" x="152.14" y="31.74" width="8.01" height="8.01"/><rect class="cls-79" x="144.13" y="31.74" width="8.01" height="8.01"/><rect class="cls-80" x="136.13" y="31.74" width="8.01" height="8.01"/><rect class="cls-81" x="128.12" y="31.74" width="8.01" height="8.01"/><rect class="cls-8" x="120.11" y="31.74" width="8.01" height="8.01"/><rect class="cls-82" x="112.1" y="31.74" width="8.01" height="8.01"/><rect class="cls-83" x="104.1" y="31.74" width="8.01" height="8.01"/><rect class="cls-84" x="96.09" y="31.74" width="8.01" height="8.01"/><rect class="cls-12" x="88.08" y="31.74" width="8.01" height="8.01"/><rect class="cls-13" x="80.08" y="31.74" width="8" height="8.01"/><rect class="cls-14" x="72.07" y="31.74" width="8.01" height="8.01"/><rect class="cls-15" x="64.06" y="31.74" width="8.01" height="8.01"/><rect class="cls-85" x="56.05" y="31.74" width="8.01" height="8.01"/><rect class="cls-86" x="48.05" y="31.74" width="8.01" height="8.01"/><rect class="cls-87" x="40.04" y="31.74" width="8.01" height="8.01"/><rect class="cls-36" x="32.03" y="31.74" width="8.01" height="8.01"/><rect class="cls-37" x="24.02" y="31.74" width="8.01" height="8.01"/><rect class="cls-88" x="16.02" y="31.74" width="8.01" height="8.01"/><rect class="cls-59" x="168.16" y="23.73" width="8.01" height="8.01"/><rect class="cls-48" x="160.15" y="23.73" width="8.01" height="8.01"/><rect class="cls-4" x="152.14" y="23.73" width="8.01" height="8.01"/><rect class="cls-23" x="144.13" y="23.73" width="8.01" height="8.01"/><rect class="cls-24" x="136.13" y="23.73" width="8.01" height="8.01"/><rect class="cls-25" x="128.12" y="23.73" width="8.01" height="8.01"/><rect class="cls-8" x="120.11" y="23.73" width="8.01" height="8.01"/><rect class="cls-89" x="112.1" y="23.73" width="8.01" height="8.01"/><rect class="cls-90" x="104.1" y="23.73" width="8.01" height="8.01"/><rect class="cls-91" x="96.09" y="23.73" width="8.01" height="8.01"/><rect class="cls-12" x="88.08" y="23.73" width="8.01" height="8.01"/><rect class="cls-13" x="80.07" y="23.73" width="8.01" height="8.01"/><rect class="cls-14" x="72.07" y="23.73" width="8.01" height="8.01"/><rect class="cls-15" x="64.06" y="23.73" width="8.01" height="8.01"/><rect class="cls-16" x="56.05" y="23.73" width="8.01" height="8.01"/><rect class="cls-17" x="48.05" y="23.73" width="8.01" height="8.01"/><rect class="cls-18" x="40.04" y="23.73" width="8.01" height="8.01"/><rect class="cls-36" x="32.03" y="23.73" width="8.01" height="8.01"/><rect class="cls-37" x="24.02" y="23.73" width="8.01" height="8.01"/><rect class="cls-92" x="16.02" y="23.73" width="8.01" height="8.01"/><rect class="cls-93" x="184.17" y="489.02" width="8.01" height="8.01"/><rect class="cls-94" x="176.16" y="489.02" width="8.01" height="8.01"/><rect class="cls-95" x="168.16" y="489.02" width="8.01" height="8.01"/><rect class="cls-96" x="160.15" y="489.02" width="8.01" height="8.01"/><rect class="cls-97" x="152.14" y="489.02" width="8.01" height="8.01"/><rect class="cls-98" x="144.13" y="489.02" width="8.01" height="8.01"/><rect class="cls-99" x="136.13" y="489.02" width="8.01" height="8.01"/><rect class="cls-100" x="128.12" y="489.02" width="8.01" height="8.01"/><rect class="cls-101" x="120.11" y="489.02" width="8.01" height="8.01"/><rect class="cls-102" x="112.1" y="489.02" width="8.01" height="8.01"/><rect class="cls-102" x="104.1" y="489.02" width="8.01" height="8.01"/><rect class="cls-103" x="96.09" y="489.02" width="8.01" height="8.01"/><rect class="cls-104" x="88.08" y="489.02" width="8.01" height="8.01"/><rect class="cls-104" x="80.07" y="489.02" width="8.01" height="8.01"/><rect class="cls-104" x="72.07" y="489.02" width="8.01" height="8.01"/><rect class="cls-104" x="64.06" y="489.02" width="8.01" height="8.01"/><rect class="cls-104" x="56.05" y="489.02" width="8.01" height="8.01"/><rect class="cls-104" x="48.04" y="489.02" width="8.01" height="8.01"/><rect class="cls-105" x="40.04" y="489.02" width="8.01" height="8.01"/><rect class="cls-106" x="32.03" y="489.02" width="8.01" height="8.01"/><rect class="cls-107" x="24.02" y="489.02" width="8.01" height="8.01"/><rect class="cls-108" x="16.01" y="489.02" width="8.01" height="8.01"/><rect class="cls-109" x="8.01" y="489.02" width="8.01" height="8.01"/><rect class="cls-110" y="489.02" width="8.01" height="8.01"/><rect class="cls-111" x="184.17" y="481.01" width="8.01" height="8.01"/><rect class="cls-112" x="176.16" y="481.01" width="8.01" height="8.01"/><rect class="cls-113" x="168.16" y="481.01" width="8.01" height="8.01"/><rect class="cls-114" x="160.15" y="481.01" width="8.01" height="8.01"/><rect class="cls-115" x="152.14" y="481.01" width="8.01" height="8.01"/><rect class="cls-116" x="144.13" y="481.01" width="8.01" height="8.01"/><rect class="cls-117" x="136.13" y="481.01" width="8.01" height="8.01"/><rect class="cls-118" x="128.12" y="481.01" width="8.01" height="8.01"/><rect class="cls-119" x="120.11" y="481.01" width="8.01" height="8.01"/><rect class="cls-120" x="112.1" y="481.01" width="8.01" height="8.01"/><rect class="cls-120" x="104.1" y="481.01" width="8.01" height="8.01"/><rect class="cls-121" x="96.09" y="481.01" width="8.01" height="8.01"/><rect class="cls-122" x="88.08" y="481.01" width="8.01" height="8.01"/><rect class="cls-122" x="80.07" y="481.01" width="8.01" height="8.01"/><rect class="cls-122" x="72.07" y="481.01" width="8.01" height="8.01"/><rect class="cls-122" x="64.06" y="481.01" width="8.01" height="8.01"/><rect class="cls-122" x="56.05" y="481.01" width="8.01" height="8.01"/><rect class="cls-122" x="48.04" y="481.01" width="8.01" height="8.01"/><rect class="cls-123" x="40.04" y="481.01" width="8.01" height="8.01"/><rect class="cls-124" x="32.03" y="481.01" width="8.01" height="8.01"/><rect class="cls-124" x="24.02" y="481.01" width="8.01" height="8.01"/><rect class="cls-125" x="16.01" y="481.01" width="8.01" height="8.01"/><rect class="cls-126" x="8.01" y="481.01" width="8.01" height="8.01"/><rect class="cls-127" y="481.01" width="8.01" height="8.01"/><rect class="cls-128" x="184.17" y="473" width="8.01" height="8.01"/><rect class="cls-129" x="176.16" y="473" width="8.01" height="8.01"/><rect class="cls-130" x="168.16" y="473" width="8.01" height="8.01"/><rect class="cls-131" x="160.15" y="473" width="8.01" height="8.01"/><rect class="cls-132" x="152.14" y="473" width="8.01" height="8.01"/><rect class="cls-133" x="144.13" y="473" width="8.01" height="8.01"/><rect class="cls-134" x="136.13" y="473" width="8.01" height="8.01"/><rect class="cls-135" x="128.12" y="473" width="8.01" height="8.01"/><rect class="cls-136" x="120.11" y="473" width="8.01" height="8.01"/><rect class="cls-137" x="112.1" y="473" width="8.01" height="8.01"/><rect class="cls-137" x="104.1" y="473" width="8.01" height="8.01"/><rect class="cls-138" x="96.09" y="473" width="8.01" height="8.01"/><rect class="cls-139" x="88.08" y="473" width="8.01" height="8.01"/><rect class="cls-139" x="80.07" y="473" width="8.01" height="8.01"/><rect class="cls-139" x="72.07" y="473" width="8.01" height="8.01"/><rect class="cls-139" x="64.06" y="473" width="8.01" height="8.01"/><rect class="cls-139" x="56.05" y="473" width="8.01" height="8.01"/><rect class="cls-139" x="48.04" y="473" width="8.01" height="8.01"/><rect class="cls-140" x="40.04" y="473" width="8.01" height="8.01"/><rect class="cls-141" x="32.03" y="473" width="8.01" height="8.01"/><rect class="cls-141" x="24.02" y="473" width="8.01" height="8.01"/><rect class="cls-142" x="16.01" y="473" width="8.01" height="8.01"/><rect class="cls-143" x="8.01" y="473" width="8.01" height="8.01"/><rect class="cls-144" y="473" width="8.01" height="8.01"/><rect class="cls-93" x="184.17" y="16.02" width="8.01" height="8.01"/><rect class="cls-94" x="176.16" y="16.02" width="8.01" height="8.01"/><rect class="cls-95" x="168.16" y="16.02" width="8.01" height="8.01"/><rect class="cls-96" x="160.15" y="16.02" width="8.01" height="8.01"/><rect class="cls-97" x="152.14" y="16.02" width="8.01" height="8.01"/><rect class="cls-98" x="144.13" y="16.02" width="8.01" height="8.01"/><rect class="cls-99" x="136.13" y="16.02" width="8.01" height="8.01"/><rect class="cls-100" x="128.12" y="16.02" width="8.01" height="8.01"/><rect class="cls-101" x="120.11" y="16.02" width="8.01" height="8.01"/><rect class="cls-102" x="112.1" y="16.02" width="8.01" height="8.01"/><rect class="cls-102" x="104.1" y="16.02" width="8.01" height="8.01"/><rect class="cls-103" x="96.09" y="16.02" width="8.01" height="8.01"/><rect class="cls-104" x="88.08" y="16.02" width="8.01" height="8.01"/><rect class="cls-104" x="80.07" y="16.02" width="8.01" height="8.01"/><rect class="cls-104" x="72.07" y="16.02" width="8.01" height="8.01"/><rect class="cls-104" x="64.06" y="16.02" width="8.01" height="8.01"/><rect class="cls-104" x="56.05" y="16.02" width="8.01" height="8.01"/><rect class="cls-104" x="48.04" y="16.02" width="8.01" height="8.01"/><rect class="cls-105" x="40.04" y="16.02" width="8.01" height="8.01"/><rect class="cls-106" x="32.03" y="16.02" width="8.01" height="8.01"/><rect class="cls-107" x="24.02" y="16.02" width="8.01" height="8.01"/><rect class="cls-108" x="16.01" y="16.02" width="8.01" height="8.01"/><rect class="cls-109" x="8.01" y="16.02" width="8.01" height="8.01"/><rect class="cls-110" y="16.02" width="8.01" height="8.01"/><rect class="cls-111" x="184.17" y="8.01" width="8.01" height="8.01"/><rect class="cls-112" x="176.16" y="8.01" width="8.01" height="8.01"/><rect class="cls-113" x="168.16" y="8.01" width="8.01" height="8.01"/><rect class="cls-114" x="160.15" y="8.01" width="8.01" height="8.01"/><rect class="cls-115" x="152.14" y="8.01" width="8.01" height="8.01"/><rect class="cls-116" x="144.13" y="8.01" width="8.01" height="8.01"/><rect class="cls-117" x="136.13" y="8.01" width="8.01" height="8.01"/><rect class="cls-118" x="128.12" y="8.01" width="8.01" height="8.01"/><rect class="cls-119" x="120.11" y="8.01" width="8.01" height="8.01"/><rect class="cls-120" x="112.1" y="8.01" width="8.01" height="8.01"/><rect class="cls-120" x="104.1" y="8.01" width="8.01" height="8.01"/><rect class="cls-121" x="96.09" y="8.01" width="8.01" height="8.01"/><rect class="cls-122" x="88.08" y="8.01" width="8.01" height="8.01"/><rect class="cls-122" x="80.07" y="8.01" width="8.01" height="8.01"/><rect class="cls-122" x="72.07" y="8.01" width="8.01" height="8.01"/><rect class="cls-122" x="64.06" y="8.01" width="8.01" height="8.01"/><rect class="cls-122" x="56.05" y="8.01" width="8.01" height="8.01"/><rect class="cls-122" x="48.04" y="8.01" width="8.01" height="8.01"/><rect class="cls-123" x="40.04" y="8.01" width="8.01" height="8.01"/><rect class="cls-124" x="32.03" y="8.01" width="8.01" height="8.01"/><rect class="cls-124" x="24.02" y="8.01" width="8.01" height="8.01"/><rect class="cls-125" x="16.01" y="8.01" width="8.01" height="8.01"/><rect class="cls-126" x="8.01" y="8.01" width="8.01" height="8.01"/><rect class="cls-127" y="8.01" width="8.01" height="8.01"/><rect class="cls-128" x="184.17" width="8.01" height="8.01"/><rect class="cls-129" x="176.16" width="8.01" height="8.01"/><rect class="cls-130" x="168.16" width="8.01" height="8.01"/><rect class="cls-131" x="160.15" width="8.01" height="8.01"/><rect class="cls-132" x="152.14" width="8.01" height="8.01"/><rect class="cls-133" x="144.13" width="8.01" height="8.01"/><rect class="cls-134" x="136.13" width="8.01" height="8.01"/><rect class="cls-135" x="128.12" width="8.01" height="8.01"/><rect class="cls-136" x="120.11" width="8.01" height="8.01"/><rect class="cls-137" x="112.1" width="8.01" height="8.01"/><rect class="cls-137" x="104.1" width="8.01" height="8.01"/><rect class="cls-138" x="96.09" width="8.01" height="8.01"/><rect class="cls-139" x="88.08" width="8.01" height="8.01"/><rect class="cls-139" x="80.07" width="8.01" height="8.01"/><rect class="cls-139" x="72.07" width="8.01" height="8.01"/><rect class="cls-139" x="64.06" width="8.01" height="8.01"/><rect class="cls-139" x="56.05" width="8.01" height="8.01"/><rect class="cls-139" x="48.04" width="8.01" height="8.01"/><rect class="cls-140" x="40.04" width="8.01" height="8.01"/><rect class="cls-141" x="32.03" width="8.01" height="8.01"/><rect class="cls-141" x="24.02" width="8.01" height="8.01"/><rect class="cls-142" x="16.01" width="8.01" height="8.01"/><rect class="cls-143" x="8.01" width="8.01" height="8.01"/><rect class="cls-144" width="8.01" height="8.01"/></g></g></svg>