<svg xmlns="http://www.w3.org/2000/svg" viewBox="0 0 196.2 140"><defs><style>.cls-1{fill:#fbe03b;}.cls-2{fill:#fff174;}.cls-3{fill:#fbb83b;}.cls-4{fill:#fcee21;}</style></defs><title>wing</title><g id="Layer_2" data-name="Layer 2"><g id="Layer_1-2" data-name="Layer 1"><rect x="130.8" y="112" width="32.7" height="28"/><rect x="98.1" y="112" width="32.7" height="28"/><rect x="65.4" y="112" width="32.7" height="28"/><rect x="163.5" y="84" width="32.7" height="28"/><rect class="cls-1" x="130.8" y="84" width="32.7" height="28"/><rect class="cls-2" x="98.1" y="84" width="32.7" height="28"/><rect class="cls-2" x="65.4" y="84" width="32.7" height="28"/><rect x="163.5" y="56" width="32.7" height="28"/><rect class="cls-3" x="130.8" y="56" width="32.7" height="28"/><rect class="cls-1" x="98.1" y="56" width="32.7" height="28"/><rect class="cls-1" x="65.4" y="56" width="32.7" height="28"/><rect x="130.8" y="28" width="32.7" height="28"/><rect class="cls-3" x="98.1" y="28" width="32.7" height="28"/><rect class="cls-1" x="65.4" y="28" width="32.7" height="28"/><rect x="98.1" width="32.7" height="28"/><rect x="65.4" width="32.7" height="28"/><rect x="32.7" y="84" width="32.7" height="28"/><rect class="cls-2" x="32.7" y="56" width="32.7" height="28"/><rect y="56" width="32.7" height="28"/><rect class="cls-4" x="32.7" y="28" width="32.7" height="28"/><rect y="28" width="32.7" height="28"/><rect x="32.7" width="32.7" height="28"/><rect width="32.7" height="28"/></g></g></svg>